<?xml version="1.0" standalone="no"?><!DOCTYPE svg PUBLIC "-//W3C//DTD SVG 1.1//EN" "http://www.w3.org/Graphics/SVG/1.1/DTD/svg11.dtd"><svg t="1737694745221" class="icon" viewBox="0 0 1024 1024" version="1.1" xmlns="http://www.w3.org/2000/svg" p-id="4203" xmlns:xlink="http://www.w3.org/1999/xlink" width="128" height="128"><path d="M162.816 792.576c-11.264-13.312 7.168-56.32 124.928-292.864 75.776-151.552 145.408-280.576 154.624-285.696s58.368-9.216 109.568-9.216c84.992 0 94.208 2.048 107.52 23.552 26.624 39.936 91.136 233.472 81.92 241.664-7.168 7.168-197.632 89.088-278.528 120.832-7.168 3.072 4.096-28.672 24.576-71.68 32.768-66.56 39.936-74.752 51.2-60.416 11.264 15.36 15.36 15.36 56.32-3.072 24.576-10.24 49.152-22.528 53.248-25.6 4.096-4.096-3.072-36.864-16.384-72.704l-24.576-65.536-65.536-3.072-65.536-3.072-109.568 221.184c-61.44 120.832-110.592 222.208-110.592 225.28 0 20.48 89.088-6.144 243.712-72.704 99.328-43.008 187.392-79.872 194.56-82.944s-4.096 29.696-25.6 72.704c-31.744 64.512-40.96 75.776-50.176 62.464-10.24-13.312-28.672-8.192-144.384 40.96-124.928 52.224-139.264 56.32-216.064 56.32-61.44 0-84.992-4.096-95.232-16.384zM642.048 776.192l-14.336-33.792 70.656-3.072c37.888-2.048 69.632-4.096 69.632-6.144s-11.264-34.816-25.6-71.68c-32.768-86.016-31.744-94.208 5.12-107.52 35.84-12.288 33.792-14.336 87.04 139.264 37.888 110.592 33.792 115.712-88.064 115.712h-91.136l-13.312-32.768z" fill="#595BD4" p-id="4204"></path></svg>